<svg xmlns="http://www.w3.org/2000/svg" xml:space="preserve" fill-rule="evenodd" stroke-linejoin="round" stroke-miterlimit="2" clip-rule="evenodd" viewBox="0 0 100 100" fill="#362a1b"><path d="M47.873 31.626c.473 0 .929-.187 1.264-.522.333-.335.522-.79.522-1.264v-7.017a1.787 1.787 0 0 0-3.572 0v7.017a1.787 1.787 0 0 0 1.786 1.786ZM47.873 42.144c.473 0 .929-.188 1.264-.523.333-.334.522-.79.522-1.264v-3.464a1.786 1.786 0 0 0-3.572 0v3.464a1.787 1.787 0 0 0 1.786 1.787Z"/><path d="M75.926 68.376h-5.232v-3.447h1.786a5.359 5.359 0 0 0 4.486-5.286 5.359 5.359 0 0 0-4.486-5.286h-1.786v-5.232a1.786 1.786 0 0 0-1.786-1.785h-5.232V16.554l6.464-6.412c.384-.339.608-.825.608-1.339V1.786c0-.473-.187-.93-.522-1.264A1.789 1.789 0 0 0 68.962 0H26.837c-.986 0-1.785.8-1.785 1.786.09.518-.161 7.464.143 7.714-.161.268 6.607 6.66 6.857 7.036v30.803h-5.215c-.986 0-1.785.799-1.785 1.786v5.232h-1.786a5.367 5.367 0 0 0-4.34 1.2 5.37 5.37 0 0 0-1.888 4.086c0 1.572.692 3.066 1.888 4.085a5.372 5.372 0 0 0 4.34 1.2h1.786v26.144A8.93 8.93 0 0 0 33.98 100h27.785a8.93 8.93 0 0 0 8.715-7.017h5.446a7.144 7.144 0 0 0 7.036-7.037V75.428a7.142 7.142 0 0 0-7.036-7.053ZM49.66 3.572h17.464V7.02H49.659V3.572Zm0 7.018h14.928l-3.375 3.43H49.66v-3.43Zm10.447 7v29.75H35.623V17.59h24.483ZM28.623 3.573h17.464v3.446H28.623V3.572Zm2.535 7.017h14.928v3.429H34.57l-3.41-3.429Zm-2.535 40.322h38.501v3.446h-38.5v-3.446Zm38.501 40.285a5.357 5.357 0 0 1-5.358 5.232H33.981a5.354 5.354 0 0 1-5.356-5.356V64.929h38.5v26.267ZM23.321 61.357a1.785 1.785 0 0 1 0-3.429H72.41a1.785 1.785 0 0 1 0 3.43H23.32Zm56.07 24.59a3.462 3.462 0 0 1-3.465 3.464h-5.232V71.947h5.232c.939 0 1.836.38 2.487 1.054.656.67 1.005 1.58.979 2.518v10.428Z"/></svg>
