<svg xmlns="http://www.w3.org/2000/svg" xml:space="preserve" fill-rule="evenodd" stroke-linejoin="round" stroke-miterlimit="2" clip-rule="evenodd" viewBox="0 0 100 100" fill="#362a1b"><path fill-rule="nonzero" d="M97.993 12.502c-1.167-2.745-4.354-4.028-7.09-2.862l-32.39 13.765c-2.742 1.167-4.03 4.35-2.862 7.092l.12.282-11.703 4.988 3.654-13.908c.133-.5.025-1.033-.291-1.44a1.675 1.675 0 0 0-1.322-.651l-38.589.008c-.516 0-1.003.242-1.32.65a1.657 1.657 0 0 0-.291 1.442l4.411 16.781L.38 76.505a11.315 11.315 0 0 0 2 9.853 11.319 11.319 0 0 0 9.02 4.433h30.83c3.558 0 6.85-1.617 9.024-4.433 2.175-2.816 2.9-6.407 2-9.853l-9.687-36.893 13.512-5.758.142.333a5.424 5.424 0 0 0 7.095 2.863l32.388-13.766a5.381 5.381 0 0 0 2.9-2.954 5.387 5.387 0 0 0-.037-4.142L98 12.505l-.007-.003ZM43.95 23.11l-3.65 13.879-26.972-.005-3.65-13.878h34.268l.004.004Zm4.662 61.212a8.008 8.008 0 0 1-6.382 3.138l-30.83-.004a8.004 8.004 0 0 1-6.384-3.138 8 8 0 0 1-1.412-6.97l9.724-37.03h26.977l9.724 37.03a7.999 7.999 0 0 1-1.412 6.97l-.005.004ZM96.51 19.077c-.208.513-.6.917-1.112 1.133l-32.39 13.766a2.077 2.077 0 0 1-2.72-1.1l-.779-1.838c-.004-.012 0-.025-.008-.033-.004-.013-.017-.017-.021-.03l-.758-1.783a2.073 2.073 0 0 1 1.1-2.72L92.21 12.707c.266-.113.537-.167.808-.167.808 0 1.575.475 1.913 1.262l1.565 3.683c.217.51.221 1.075.017 1.592h-.004Z"/></svg>
