<svg xmlns="http://www.w3.org/2000/svg" xml:space="preserve" fill-rule="evenodd" stroke-linejoin="round" stroke-miterlimit="2" clip-rule="evenodd" viewBox="0 0 100 100" fill="#362a1b"><path fill-rule="nonzero" d="M16.756 34.485v55.316c0 5.621 4.572 10.198 10.195 10.198h34.79c5.62 0 10.197-4.572 10.197-10.198V77.174h9.628c4.585 0 8.317-3.73 8.317-8.32V36.292c0-4.584-3.732-8.32-8.317-8.32h-9.628v-9.378c0-5.093-4.14-9.232-9.232-9.232H48.788c.508-1.529.816-3.103.816-4.106A5.26 5.26 0 0 0 44.349 0a5.26 5.26 0 0 0-5.256 5.256c0 1.003.304 2.577.817 4.106H25.992c-5.093 0-9.233 4.139-9.233 9.232v1.183h-4.98c-.583 0-1.124.303-1.424.803-.3.5-.317 1.12-.046 1.637l6.454 12.264-.007.004Zm64.81-3.177a4.991 4.991 0 0 1 4.985 4.989v32.56a4.995 4.995 0 0 1-4.985 4.99h-9.628V31.313h9.628v-.005ZM42.421 5.256c0-1.063.866-1.925 1.924-1.925a1.93 1.93 0 0 1 1.923 1.925c0 .795-.407 2.619-1.049 4.105h-1.757c-.642-1.482-1.05-3.31-1.05-4.105h.009ZM20.087 18.599a5.907 5.907 0 0 1 5.901-5.902h16.153c.21.041.417.041.625 0h3.09c.125.03.25.05.375.05.129 0 .254-.02.38-.05H62.7a5.91 5.91 0 0 1 5.902 5.902v1.182h-24.23c-.012 0-.02-.009-.032-.009-.013 0-.022.009-.034.009H20.082v-1.182h.005Zm-1.666 4.51H42.68v50.73H26.47a1.665 1.665 0 1 0 0 3.331h17.854s.011.004.02.004c.008 0 .013-.004.021-.004h17.857a1.665 1.665 0 1 0 0-3.331H46.011l-.004-50.73h22.596V89.8c0 3.786-3.083 6.867-6.868 6.867h-34.79c-3.785 0-6.862-3.081-6.862-6.867V34.074c0-.271-.067-.537-.192-.775l-5.363-10.186h3.889l.004-.005Z"/></svg>
