<svg xmlns="http://www.w3.org/2000/svg" xml:space="preserve" fill-rule="evenodd" stroke-linejoin="round" stroke-miterlimit="2" clip-rule="evenodd" viewBox="0 0 100 100" fill="#362a1b"><path fill-rule="nonzero" d="m27.515 34.398 4.952 22.759c.169.776.857 1.33 1.65 1.33h1.08v3.374h-1.08c-.785 0-1.468.54-1.645 1.304l-8.084 34.764c-.117.501 0 1.03.321 1.435.32.404.806.636 1.32.636h48.683c.515 0 1-.236 1.32-.636.321-.405.439-.93.321-1.435L68.27 63.165a1.687 1.687 0 0 0-1.645-1.304h-1.08v-3.375h1.08c.793 0 1.48-.553 1.65-1.33l7.791-35.802h4.805c1.013 0 1.96.452 2.598 1.237.642.784.887 1.805.68 2.796l-4.4 21.084a3.368 3.368 0 0 1-1.852 2.345l-5.522 2.603a1.69 1.69 0 0 0-.81 2.245 1.686 1.686 0 0 0 2.244.81l5.522-2.603a6.758 6.758 0 0 0 3.717-4.712l4.4-21.084a6.687 6.687 0 0 0-1.368-5.615 6.7 6.7 0 0 0-5.218-2.485h-5.851l-20.178-7.75c.642-1.766 1.004-3.627 1.004-4.74A5.489 5.489 0 0 0 50.353 0a5.489 5.489 0 0 0-5.483 5.484c0 1.222.413 3.07 1.02 4.736L25.7 17.975H14.095a1.69 1.69 0 0 0-1.569 1.072 1.69 1.69 0 0 0 .422 1.852l14.546 13.495.02.004Zm22.86-22.274 15.237 5.851h-30.48l15.238-5.85h.005Zm7.581 9.226-2.843 33.757h-9.48L42.791 21.35h15.165Zm-29.825 0h11.28l2.843 33.757h-6.775L28.135 21.35h-.004Zm7.324 43.886h6.783l-2.822 31.39H28.16l7.297-31.39h-.003Zm10.17 0h9.496l2.822 31.39h-15.14l2.822-31.39Zm26.969 31.39H61.336l-2.823-31.39h6.784l7.297 31.39ZM62.184 61.86H38.567v-3.375h23.615v3.375Zm3.095-6.75h-6.778l2.843-33.757h11.28L65.28 55.111ZM48.262 5.49a2.11 2.11 0 0 1 4.219 0c0 .675-.274 2.118-.78 3.531l-.722-.278a1.661 1.661 0 0 0-1.21 0l-.718.274c-.515-1.427-.794-2.865-.794-3.527h.005ZM24.676 21.35l.008.034 1.578 7.243-7.843-7.277h6.26-.003Z"/></svg>
