<svg xmlns="http://www.w3.org/2000/svg" xml:space="preserve" fill-rule="evenodd" stroke-linejoin="round" stroke-miterlimit="2" clip-rule="evenodd" viewBox="0 0 100 100" file="#362a1b"><path fill-rule="nonzero" d="M28.149 100h43.689c4.204 0 8.138-1.975 10.52-5.287 2.26-3.142 2.86-7.03 1.647-10.667L73.029 51.17a1.66 1.66 0 0 0 1.554-2.188l-5.707-17.089 4.092-17.218c.116-.496 0-1.016-.313-1.416-.317-.4-.8-.634-1.309-.634h-.175l2.517-10.571c.017-.066 0-.129.008-.19.009-.068.037-.127.037-.193 0-.05-.024-.087-.024-.138a1.424 1.424 0 0 0-.067-.33c-.03-.098-.062-.199-.108-.29a1.84 1.84 0 0 0-.175-.263 1.659 1.659 0 0 0-.216-.233 1.586 1.586 0 0 0-.255-.171c-.1-.059-.2-.109-.309-.142-.046-.017-.079-.046-.125-.059-.066-.016-.129 0-.192-.007-.066-.009-.124-.038-.19-.038H27.936c-.067 0-.124.03-.192.038-.066.007-.129-.009-.195.007-.046.013-.08.042-.126.06a1.71 1.71 0 0 0-.308.141 1.851 1.851 0 0 0-.254.17c-.083.071-.15.151-.216.234a1.4 1.4 0 0 0-.284.554 1.48 1.48 0 0 0-.066.33c-.005.045-.026.087-.026.137 0 .066.034.125.037.192.009.066-.007.13.009.191l2.517 10.571h-.32c-.51 0-.993.234-1.31.634-.316.4-.433.925-.312 1.416l4.092 17.218-5.708 17.089a1.657 1.657 0 0 0 .228 1.5 1.67 1.67 0 0 0 1.355.692h.112L15.998 84.04c-1.216 3.642-.617 7.53 1.643 10.672C20.024 98.022 23.957 100 28.16 100h-.012Zm1.883-96.67h39.919l-2.214 9.292H32.245L30.032 3.33Zm.892 12.625h38.309l-3.408 14.347H34.02l-3.408-14.347h.315-.003Zm26.093 22.572c.208.454.22.846.05 1.27-.15.38-.408.747-1.147.601-1.44-.28-3.362-2.242-4.004-5.838 2.142 1.038 4.442 2.513 5.101 3.967Zm-8.95-3.963c-.643 3.596-2.567 5.559-4.005 5.838-.737.146-.992-.225-1.146-.6-.17-.425-.154-.816.05-1.27.659-1.455 2.958-2.93 5.1-3.968Zm-14.168-.929h9.192c-1.342.98-2.542 2.155-3.158 3.508-.584 1.284-.621 2.63-.108 3.9.691 1.718 2.183 2.717 3.941 2.717.304 0 .617-.029.934-.091 1.983-.383 3.963-1.988 5.3-4.554 1.338 2.566 3.312 4.166 5.3 4.554.316.062.629.091.934.091 1.758 0 3.25-1.004 3.942-2.717.512-1.27.474-2.616-.11-3.9-.616-1.353-1.816-2.533-3.158-3.508h9.047l4.746 14.204H29.17l4.745-14.204H33.9Zm35.619 17.538 3.513 10.52c-2.88 1.489-11.288 4.743-22.293-.728-10.146-5.042-18.417-3.446-22.958-1.733l2.69-8.06h39.052-.004ZM19.14 85.1l7.192-21.538c2.042-1.192 10.934-5.568 22.917.391 5.126 2.55 9.78 3.405 13.717 3.4 5.093 0 8.975-1.429 11.13-2.467l6.75 20.218c.872 2.612.442 5.41-1.187 7.667-1.758 2.442-4.684 3.9-7.817 3.9H28.153c-3.134 0-6.059-1.458-7.817-3.9-1.63-2.258-2.059-5.055-1.188-7.667l-.008-.004Z"/></svg>
